<svg aria-hidden="true" style="position:absolute;width:0;height:0" xmlns="http://www.w3.org/2000/svg" overflow="hidden"><defs><symbol id="add-button-icon" viewBox="0 0 32 32"><path fill="none" stroke="var(--color1, #fff)" stroke-width="3.2" d="M0 16h32"/></symbol><symbol id="currency-page-mobile-icon" viewBox="0 0 32 32"><path d="M5.053 0A5.053 5.053 0 000 5.053v21.895a5.053 5.053 0 005.053 5.053h21.895a5.053 5.053 0 005.053-5.053V5.053A5.053 5.053 0 0026.948 0H5.053zm8.212 13.136c0 .995.765 1.634 3.144 2.253s4.925 1.635 4.925 4.611c0 2.147-1.624 3.332-3.667 3.72v2.253h-3.144v-2.274c-2.012-.429-3.731-1.718-3.855-4.013h2.305c.115 1.236.964 2.2 3.123 2.2 2.316 0 2.829-1.152 2.829-1.875 0-.974-.525-1.896-3.144-2.525-2.924-.702-4.925-1.907-4.925-4.328 0-2.021 1.635-3.341 3.667-3.782V7.112h3.144v2.295c2.189.535 3.29 2.189 3.363 3.992h-2.316c-.062-1.309-.754-2.2-2.619-2.2-1.771 0-2.829.797-2.829 1.939z"/></symbol><symbol id="email-field-icon" viewBox="0 0 32 32"><path d="M28.19 3.81H3.809A3.043 3.043 0 00.777 6.858L.762 25.144a3.057 3.057 0 003.048 3.048h24.381a3.057 3.057 0 003.048-3.048V6.858a3.057 3.057 0 00-3.048-3.048zm0 6.095L16 17.524 3.81 9.905V6.857L16 14.476l12.19-7.619v3.048z"/></symbol><symbol id="logout-icon" viewBox="0 0 32 32"><path d="M20.052 23.236h2.498v4.999a3.752 3.752 0 01-3.747 3.748H3.749a3.752 3.752 0 01-3.748-3.747V3.749A3.752 3.752 0 013.748.001h15.054a3.752 3.752 0 013.748 3.747v4.999h-2.496V3.751v-.002c0-.69-.56-1.25-1.25-1.25H3.748c-.69.001-1.249.56-1.25 1.25v24.487c0 .688.562 1.248 1.25 1.248h15.054a1.25 1.25 0 001.25-1.248v-5.001zm6.058-13.135l-1.767 1.767 2.875 2.873h-16.16v2.5h16.16l-2.875 2.873 1.767 1.767 5.89-5.89-5.89-5.89z"/></symbol><symbol id="main-page-icon" viewBox="0 0 32 32"><path fill="var(--color5, #4a56e2)" d="M3.556 0A3.556 3.556 0 000 3.556v24.889a3.556 3.556 0 003.556 3.556h24.889a3.556 3.556 0 003.556-3.556V3.556A3.556 3.556 0 0028.445 0H3.556zm10.311 17.988v6.901H8.534v-9.202h-3.2L16.001 5.333l10.667 10.354h-3.2v9.202h-5.333v-6.901h-4.267z"/></symbol><symbol id="main-page-mobile-icon" viewBox="0 0 32 32"><path d="M5.053 0A5.053 5.053 0 000 5.053v21.895a5.053 5.053 0 005.053 5.053h21.895a5.053 5.053 0 005.053-5.053V5.053A5.053 5.053 0 0026.948 0H5.053zm8.364 17.987v6.901H7.663v-9.203H4.21L15.719 5.332l11.508 10.353h-3.453v9.203H18.02v-6.901h-4.604z"/></symbol><symbol id="name-field-icon" viewBox="0 0 32 32"><path d="M.842 4.211V27.79a3.368 3.368 0 003.368 3.368h23.579a3.378 3.378 0 003.368-3.368V4.211A3.378 3.378 0 0027.789.843H4.21A3.368 3.368 0 00.842 4.211zm20.211 6.736C21.053 13.743 18.796 16 16 16s-5.053-2.257-5.053-5.053S13.204 5.894 16 5.894s5.053 2.257 5.053 5.053zM5.895 24.421c0-3.368 6.737-5.221 10.105-5.221s10.105 1.853 10.105 5.221v1.684H5.894v-1.684z"/></symbol><symbol id="password-field-icon" viewBox="0 0 32 32"><path d="M25.143 10.667h-1.524V7.619C23.619 3.413 20.206 0 16 0S8.381 3.413 8.381 7.619v3.048H6.857a3.057 3.057 0 00-3.048 3.048v15.238a3.057 3.057 0 003.048 3.048h18.286a3.057 3.057 0 003.048-3.048V13.715a3.057 3.057 0 00-3.048-3.048zM16 24.381c-1.676 0-3.048-1.371-3.048-3.048s1.371-3.048 3.048-3.048 3.048 1.371 3.048 3.048-1.371 3.048-3.048 3.048zm4.724-13.714h-9.448V7.619c0-2.606 2.118-4.724 4.724-4.724s4.724 2.118 4.724 4.724v3.048z"/></symbol><symbol id="remove-button-icon" viewBox="0 0 32 32"><path fill="none" stroke="var(--color1, #fff)" stroke-width="3.2" d="M16 0v32M0 16h32"/></symbol><symbol id="statistics-page-icon" viewBox="0 0 32 32"><path fill="var(--color2, #6e78e8)" d="M3.556 0h24.889a3.556 3.556 0 013.556 3.556v24.889a3.556 3.556 0 01-3.556 3.556H3.556A3.556 3.556 0 010 28.445V3.556A3.556 3.556 0 013.556 0zm22.625 13.63c1.244 0 2.263-1.067 2.263-2.372 0-1.303-1.019-2.37-2.263-2.37s-2.263 1.067-2.263 2.37c0 .213.023.416.08.604l-4.016 4.22a1.874 1.874 0 00-.56-.084h-.028.001c-.206 0-.409.023-.59.084L15.92 13.06c.051-.176.08-.378.08-.587v-.032.002c0-1.303-1.019-2.37-2.263-2.37s-2.261 1.067-2.261 2.37c0 .213.021.427.078.617l-5.159 5.392a1.806 1.806 0 00-.549-.084h-.028.001c-1.244 0-2.263 1.067-2.263 2.372 0 1.303 1.019 2.37 2.263 2.37s2.261-1.067 2.261-2.37a2.08 2.08 0 00-.078-.604l5.147-5.404c.181.059.386.082.588.082.204 0 .409-.023.588-.082l2.885 3.022c-.051.176-.08.378-.08.587v.03-.002c0 1.305 1.019 2.372 2.263 2.372s2.263-1.067 2.263-2.372c0-.213-.023-.427-.08-.615l4.028-4.208c.18.059.373.084.576.084z"/></symbol><symbol id="statistics-page-mobile-icon" viewBox="0 0 32 32"><path d="M5.053 0h21.895a5.053 5.053 0 015.053 5.053v21.895a5.053 5.053 0 01-5.053 5.053H5.053A5.053 5.053 0 010 26.948V5.053A5.053 5.053 0 015.053 0zm19.789 13.941c1.08 0 1.965-.926 1.965-2.058s-.884-2.058-1.965-2.058c-1.08 0-1.965.926-1.965 2.058 0 .185.019.36.068.525l-3.487 3.664a1.614 1.614 0 00-.483-.072h-.029.001c-.177 0-.354.02-.511.072l-2.505-2.624c.05-.165.069-.35.069-.536 0-1.132-.884-2.058-1.965-2.058s-1.965.926-1.965 2.058c0 .185.02.371.069.536l-4.48 4.683a1.564 1.564 0 00-.477-.073h-.026.001c-1.08 0-1.965.926-1.965 2.059s.884 2.058 1.965 2.058 1.965-.926 1.965-2.058c0-.185-.019-.36-.068-.525l4.47-4.694c.157.051.334.072.511.072s.354-.021.51-.072l2.505 2.625a1.874 1.874 0 00-.068.505v.031-.002c0 1.133.884 2.059 1.965 2.059s1.965-.926 1.965-2.059a1.9 1.9 0 00-.068-.535l3.497-3.654c.157.051.324.072.501.072z"/></symbol><symbol id="wallet-icon" viewBox="0 0 32 32"><path fill="var(--color6, #24cca7)" d="M3.755 7.619l16.211-4.538-.858-1.779C18.546.146 17.177-.332 16.049.244L1.536 7.619h2.219zm21.059-4.571c-.209 0-.411.032-.601.091l.014-.004L9.215 7.618h18.43l-.692-2.778c-.266-1.083-1.163-1.792-2.14-1.792z"/><path fill="var(--color5, #4a56e2)" d="M28.36 8.573H1.797a1.8 1.8 0 00-1.73 1.303l-.003.013c-.039.14-.063.3-.064.466v19.863A1.79 1.79 0 001.79 32h26.567a1.79 1.79 0 001.796-1.782v-4.974H19.491c-1.686 0-3.054-1.358-3.054-3.03v-3.966a3 3 0 01.866-2.11 3.026 3.026 0 012.172-.916H30.154v-4.867a1.784 1.784 0 00-1.785-1.782h-.008z"/><path fill="var(--color5, #4a56e2)" d="M31.414 16.926a1.79 1.79 0 00-1.209-.467H19.491a1.79 1.79 0 00-1.797 1.782v3.969a1.79 1.79 0 001.79 1.782h10.719c.205 0 .399-.036.582-.096.237-.079.449-.208.629-.371.359-.325.586-.795.586-1.316v-3.968c0-.52-.226-.991-.586-1.315zm-8.172 3.655a.895.895 0 01-.898.891h-.596a.895.895 0 01-.898-.891v-.592c0-.286.133-.538.345-.698a.906.906 0 01.553-.193h.596c.496 0 .898.399.898.891v.592z"/></symbol>
<symbol id="stick" width="1" height="30" viewBox="0 0 1 30" fill="none"><path d="M.5 0v30" stroke="#BDBDBD"/></symbol>
</defs></svg>
